# xmcd CD database file
#
# Track frame offsets:
#	150
#	18221
#	38875
#	39905
#	67885
#	88675
#	101957
#	125116
#	131716
#	161432
#	186175
#
# Disc length: 2983 seconds
#
# Revision: 0
# Processed by: cddbd v1.5.2PL0 Copyright (c) Steve Scherf et al.
# Submitted via: CDex 1.70beta2
#
DISCID=900ba50b
DTITLE=C.R. Avery - Magic Hour Sailor Songs
DYEAR=2008
DGENRE=Blues/Folk
TTITLE0=The boxer who just retruned from London
TTITLE1=Hell of a hotel of harm
TTITLE2=Moxie
TTITLE3=Down at the cafe
TTITLE4=St-Marie
TTITLE5=New stanzas for amazing grace
TTITLE6=Planet boiler room
TTITLE7=Silvee
TTITLE8=Birdcage
TTITLE9=Black bible night
TTITLE10=The ballad of Charlie Parker and Patsy Cline
EXTD=YEAR: 2008
EXTT0=
EXTT1=
EXTT2=
EXTT3=
EXTT4=
EXTT5=
EXTT6=
EXTT7=
EXTT8=
EXTT9=
EXTT10=
PLAYORDER=
